<svg xmlns="http://www.w3.org/2000/svg" viewBox="0 0 39.96 21.87"><defs><style>.cls-1{fill:#fc961d;}</style></defs><title>Ресурс 1</title><g id="Слой_2" data-name="Слой 2"><g id="Слой_2-2" data-name="Слой 2"><path class="cls-1" d="M11.72,21.84c-.12-.06-3.42-.75-7.26-7.64,10.65-4.62,16.07,2,16.07,2h0c.18-.32.33-.65.48-1a11.07,11.07,0,0,0,.85-4.33A11,11,0,0,0,21,6.62,10.7,10.7,0,0,0,15.24.85,10.76,10.76,0,0,0,11,0,11,11,0,0,0,6.62.85,10.75,10.75,0,0,0,3.17,3.17,10.59,10.59,0,0,0,.85,6.62,10.82,10.82,0,0,0,0,10.92a10.88,10.88,0,0,0,3.17,7.79A10.72,10.72,0,0,0,6.62,21a11.12,11.12,0,0,0,4.34.85A6.35,6.35,0,0,0,11.72,21.84Z"/><path class="cls-1" d="M29,.33,23.79,13.86a6.42,6.42,0,0,1,2.91-.75l3.63-9.69,6.81,18,0,.13H40L31.85.33Z"/><path class="cls-1" d="M20.5,20s-4.51-7-12.2-4.44C8.3,15.59,12.62,22.59,20.5,20Z"/><path class="cls-1" d="M20.51,20s4.51-7,12.2-4.44C32.71,15.59,28.39,22.59,20.51,20Z"/></g></g></svg>